<?xml version="1.0" encoding="UTF-8"?>
<svg id="Ebene_1" data-name="Ebene 1" xmlns="http://www.w3.org/2000/svg" viewBox="0 0 162.02 99.13">
  <defs>
    <style>
      .cls-1 {
        fill: #004a95;
      }

      .cls-1, .cls-2, .cls-3, .cls-4, .cls-5, .cls-6, .cls-7, .cls-8 {
        stroke-width: 0px;
      }

      .cls-9 {
        stroke: #fff;
      }

      .cls-9, .cls-10 {
        fill: none;
        stroke-miterlimit: 10;
      }

      .cls-2 {
        fill: #67747a;
      }

      .cls-3 {
        fill: #000;
      }

      .cls-4 {
        fill: #dd2e34;
      }

      .cls-10 {
        stroke: #67747a;
      }

      .cls-5 {
        fill: #e30613;
      }

      .cls-6 {
        fill: #51b047;
      }

      .cls-7 {
        fill: #ef7e26;
      }

      .cls-8 {
        fill: #fff;
      }
    </style>
  </defs>
  <g>
    <rect class="cls-1" x="8.61" y="8.14" width="46" height="46" rx="12" ry="12"/>
    <path class="cls-8" d="M30.47,41.09l9.38-8.71c.75-.74.77-1.94.06-2.67l-9.18-8.7c-.72-.73-2.56-1.04-2.67.03s-.29,18.67-.25,20.08,1.92.71,2.67-.03Z"/>
    <circle class="cls-9" cx="31.8" cy="31.14" r="16"/>
  </g>
  <rect class="cls-1" x="108.61" y="8.14" width="46" height="46" rx="12" ry="12"/>
  <circle class="cls-9" cx="131.8" cy="31.14" r="16"/>
  <rect class="cls-1" x="58.61" y="8.14" width="46" height="46" rx="12" ry="12"/>
  <circle class="cls-9" cx="81.8" cy="31.14" r="16"/>
  <path class="cls-8" d="M72.29,23.03h6.98l2.69,10.45,2.67-10.45h6.98v17.18h-4.35v-13.1l-3.35,13.1h-3.94l-3.34-13.1v13.1h-4.35v-17.18Z"/>
  <path class="cls-8" d="M124.63,23.03h15.02v3.43l-9.64,10.05h10v3.69h-16.3v-3.56l9.54-9.95h-8.62v-3.67Z"/>
  <g>
    <rect class="cls-6" x="8.61" y="8.14" width="46" height="46" rx="12" ry="12"/>
    <path class="cls-8" d="M30.47,41.09l9.38-8.71c.75-.74.77-1.94.06-2.67l-9.18-8.7c-.72-.73-2.56-1.04-2.67.03s-.29,18.67-.25,20.08,1.92.71,2.67-.03Z"/>
    <circle class="cls-9" cx="31.8" cy="31.14" r="16"/>
  </g>
  <rect class="cls-7" x="108.61" y="8.14" width="46" height="46" rx="12" ry="12"/>
  <circle class="cls-9" cx="131.8" cy="31.14" r="16"/>
  <rect class="cls-1" x="58.61" y="8.14" width="46" height="46" rx="12" ry="12"/>
  <circle class="cls-9" cx="81.8" cy="31.14" r="16"/>
  <path class="cls-8" d="M72.29,23.03h6.98l2.69,10.45,2.67-10.45h6.98v17.18h-4.35v-13.1l-3.35,13.1h-3.94l-3.34-13.1v13.1h-4.35v-17.18Z"/>
  <path class="cls-8" d="M124.63,23.03h15.02v3.43l-9.64,10.05h10v3.69h-16.3v-3.56l9.54-9.95h-8.62v-3.67Z"/>
  <g>
    <rect class="cls-3" x="8.61" y="8.14" width="46" height="46" rx="12" ry="12"/>
    <path class="cls-8" d="M30.47,41.09l9.38-8.71c.75-.74.77-1.94.06-2.67l-9.18-8.7c-.72-.73-2.56-1.04-2.67.03s-.29,18.67-.25,20.08,1.92.71,2.67-.03Z"/>
    <circle class="cls-9" cx="31.8" cy="31.14" r="16"/>
  </g>
  <rect class="cls-3" x="108.61" y="8.14" width="46" height="46" rx="12" ry="12"/>
  <circle class="cls-9" cx="131.8" cy="31.14" r="16"/>
  <rect class="cls-3" x="58.61" y="8.14" width="46" height="46" rx="12" ry="12"/>
  <circle class="cls-9" cx="81.8" cy="31.14" r="16"/>
  <path class="cls-8" d="M72.29,23.03h6.98l2.69,10.45,2.67-10.45h6.98v17.18h-4.35v-13.1l-3.35,13.1h-3.94l-3.34-13.1v13.1h-4.35v-17.18Z"/>
  <path class="cls-8" d="M124.63,23.03h15.02v3.43l-9.64,10.05h10v3.69h-16.3v-3.56l9.54-9.95h-8.62v-3.67Z"/>
  <g>
    <rect class="cls-3" x="8.61" y="8.14" width="46" height="46" rx="12" ry="12"/>
    <path class="cls-8" d="M30.47,41.09l9.38-8.71c.75-.74.77-1.94.06-2.67l-9.18-8.7c-.72-.73-2.56-1.04-2.67.03s-.29,18.67-.25,20.08,1.92.71,2.67-.03Z"/>
    <circle class="cls-9" cx="31.8" cy="31.14" r="16"/>
  </g>
  <rect class="cls-3" x="108.61" y="8.14" width="46" height="46" rx="12" ry="12"/>
  <circle class="cls-9" cx="131.8" cy="31.14" r="16"/>
  <rect class="cls-3" x="58.61" y="8.14" width="46" height="46" rx="12" ry="12"/>
  <circle class="cls-9" cx="81.8" cy="31.14" r="16"/>
  <path class="cls-8" d="M72.29,23.03h6.98l2.69,10.45,2.67-10.45h6.98v17.18h-4.35v-13.1l-3.35,13.1h-3.94l-3.34-13.1v13.1h-4.35v-17.18Z"/>
  <path class="cls-8" d="M124.63,23.03h15.02v3.43l-9.64,10.05h10v3.69h-16.3v-3.56l9.54-9.95h-8.62v-3.67Z"/>
  <g>
    <rect class="cls-1" x="8.61" y="8.14" width="46" height="46" rx="12" ry="12"/>
    <path class="cls-8" d="M30.47,41.09l9.38-8.71c.75-.74.77-1.94.06-2.67l-9.18-8.7c-.72-.73-2.56-1.04-2.67.03s-.29,18.67-.25,20.08,1.92.71,2.67-.03Z"/>
    <circle class="cls-9" cx="31.8" cy="31.14" r="16"/>
  </g>
  <rect class="cls-2" x="58.61" y="8.14" width="46" height="46" rx="12" ry="12"/>
  <rect class="cls-8" x="59.61" y="9.14" width="44" height="44" rx="11.48" ry="11.48"/>
  <circle class="cls-10" cx="81.8" cy="31.14" r="16"/>
  <rect class="cls-4" x="108.61" y="8.14" width="46" height="46" rx="12" ry="12"/>
  <circle class="cls-9" cx="131.8" cy="31.14" r="16"/>
  <path class="cls-2" d="M72.29,23.03h6.98l2.69,10.45,2.67-10.45h6.98v17.18h-4.35v-13.1l-3.35,13.1h-3.94l-3.34-13.1v13.1h-4.35v-17.18Z"/>
  <path class="cls-8" d="M124.63,23.03h15.02v3.43l-9.64,10.05h10v3.69h-16.3v-3.56l9.54-9.95h-8.62v-3.67Z"/>
  <g>
    <rect class="cls-5" x="8.61" y="8.14" width="46" height="46" rx="12" ry="12"/>
    <path class="cls-8" d="M30.47,41.09l9.38-8.71c.75-.74.77-1.94.06-2.67l-9.18-8.7c-.72-.73-2.56-1.04-2.67.03s-.29,18.67-.25,20.08,1.92.71,2.67-.03Z"/>
    <circle class="cls-9" cx="31.8" cy="31.14" r="16"/>
  </g>
  <rect class="cls-2" x="58.61" y="8.14" width="46" height="46" rx="12" ry="12"/>
  <rect class="cls-8" x="59.61" y="9.14" width="44" height="44" rx="11.48" ry="11.48"/>
  <circle class="cls-10" cx="81.8" cy="31.14" r="16"/>
  <rect class="cls-2" x="108.61" y="8.14" width="46" height="46" rx="12" ry="12"/>
  <circle class="cls-9" cx="131.8" cy="31.14" r="16"/>
  <path class="cls-2" d="M72.29,23.03h6.98l2.69,10.45,2.67-10.45h6.98v17.18h-4.35v-13.1l-3.35,13.1h-3.94l-3.34-13.1v13.1h-4.35v-17.18Z"/>
  <path class="cls-8" d="M124.63,23.03h15.02v3.43l-9.64,10.05h10v3.69h-16.3v-3.56l9.54-9.95h-8.62v-3.67Z"/>
  <g>
    <path class="cls-2" d="M8.78,76.06v-14.85h4.39l2.63,10.13,2.6-10.13h4.4v14.85h-2.72v-11.69l-2.88,11.69h-2.82l-2.87-11.69v11.69h-2.72Z"/>
    <path class="cls-2" d="M31.78,72.64l2.77.48c-.36,1.04-.92,1.83-1.69,2.38-.77.54-1.73.82-2.89.82-1.83,0-3.18-.61-4.06-1.83-.69-.98-1.04-2.22-1.04-3.71,0-1.78.46-3.18,1.37-4.19.91-1.01,2.06-1.51,3.46-1.51,1.56,0,2.8.53,3.7,1.59s1.34,2.68,1.3,4.86h-6.97c.02.84.24,1.5.67,1.97.43.47.96.7,1.6.7.44,0,.8-.12,1.1-.36.3-.24.52-.64.67-1.18ZM31.94,69.76c-.02-.82-.23-1.45-.62-1.88-.4-.43-.88-.64-1.45-.64-.61,0-1.11.23-1.51.68s-.59,1.07-.58,1.84h4.16Z"/>
    <path class="cls-2" d="M46.62,76.06h-2.58v-1.58c-.43.61-.94,1.07-1.52,1.37-.58.3-1.17.45-1.77.45-1.21,0-2.24-.5-3.1-1.49-.86-1-1.29-2.39-1.29-4.17s.42-3.21,1.26-4.16c.84-.95,1.9-1.42,3.18-1.42,1.18,0,2.19.5,3.05,1.5v-5.35h2.78v14.85ZM39.19,70.45c0,1.15.16,1.98.47,2.49.45.74,1.08,1.11,1.88,1.11.64,0,1.19-.28,1.63-.84.45-.56.67-1.39.67-2.5,0-1.24-.22-2.13-.65-2.67-.44-.54-.99-.82-1.67-.82s-1.21.27-1.66.81c-.45.54-.67,1.34-.67,2.41Z"/>
    <path class="cls-2" d="M49.36,63.84v-2.63h2.78v2.63h-2.78ZM49.36,76.06v-10.76h2.78v10.76h-2.78Z"/>
    <path class="cls-2" d="M61.08,72.64l2.77.48c-.36,1.04-.92,1.83-1.69,2.38-.77.54-1.73.82-2.89.82-1.83,0-3.18-.61-4.06-1.83-.69-.98-1.04-2.22-1.04-3.71,0-1.78.46-3.18,1.37-4.19.91-1.01,2.06-1.51,3.46-1.51,1.56,0,2.8.53,3.7,1.59s1.34,2.68,1.3,4.86h-6.97c.02.84.24,1.5.67,1.97.43.47.96.7,1.6.7.44,0,.8-.12,1.1-.36.3-.24.52-.64.67-1.18ZM61.24,69.76c-.02-.82-.23-1.45-.62-1.88-.4-.43-.88-.64-1.45-.64-.61,0-1.11.23-1.51.68s-.59,1.07-.58,1.84h4.16Z"/>
    <path class="cls-2" d="M75.84,76.06h-2.78v-5.49c0-1.16-.06-1.91-.18-2.25-.12-.34-.31-.61-.58-.8-.27-.19-.59-.28-.97-.28-.48,0-.91.14-1.3.41s-.65.63-.79,1.07c-.14.45-.21,1.27-.21,2.47v4.87h-2.78v-10.76h2.58v1.58c.92-1.22,2.07-1.82,3.47-1.82.61,0,1.17.11,1.68.34.51.23.89.52,1.15.87.26.35.44.75.54,1.2.1.45.15,1.08.15,1.92v6.69Z"/>
    <path class="cls-2" d="M77.54,76.06v-2.22l3.94-4.63c.65-.76,1.13-1.29,1.44-1.61-.32.02-.75.03-1.28.04l-3.71.02v-2.36h8.69v2.02l-4.02,4.74-1.42,1.57c.77-.05,1.25-.07,1.44-.07h4.31v2.5h-9.39Z"/>
    <path class="cls-2" d="M94.89,72.64l2.77.48c-.36,1.04-.92,1.83-1.69,2.38-.77.54-1.73.82-2.89.82-1.83,0-3.18-.61-4.06-1.83-.69-.98-1.04-2.22-1.04-3.71,0-1.78.46-3.18,1.37-4.19.91-1.01,2.06-1.51,3.46-1.51,1.56,0,2.8.53,3.7,1.59s1.34,2.68,1.3,4.86h-6.97c.02.84.24,1.5.67,1.97.43.47.96.7,1.6.7.44,0,.8-.12,1.1-.36.3-.24.52-.64.67-1.18ZM95.05,69.76c-.02-.82-.23-1.45-.62-1.88-.4-.43-.88-.64-1.45-.64-.61,0-1.11.23-1.51.68s-.59,1.07-.58,1.84h4.16Z"/>
    <path class="cls-2" d="M109.64,76.06h-2.78v-5.49c0-1.16-.06-1.91-.18-2.25-.12-.34-.31-.61-.58-.8-.27-.19-.59-.28-.97-.28-.48,0-.91.14-1.3.41s-.65.63-.79,1.07c-.14.45-.21,1.27-.21,2.47v4.87h-2.78v-10.76h2.58v1.58c.92-1.22,2.07-1.82,3.47-1.82.61,0,1.17.11,1.68.34.51.23.89.52,1.15.87.26.35.44.75.54,1.2.1.45.15,1.08.15,1.92v6.69Z"/>
    <path class="cls-2" d="M117.29,65.3v2.27h-1.9v4.34c0,.88.02,1.39.05,1.54.04.15.12.27.25.36.13.09.29.14.47.14.26,0,.63-.09,1.12-.27l.24,2.21c-.65.28-1.38.43-2.2.43-.5,0-.95-.09-1.36-.26s-.7-.4-.89-.67c-.19-.27-.32-.64-.39-1.11-.06-.33-.09-1-.09-2.01v-4.69h-1.28v-2.27h1.28v-2.14l2.79-1.66v3.8h1.9Z"/>
    <path class="cls-2" d="M121.88,76.06h-2.78v-10.76h2.58v1.53c.44-.72.84-1.2,1.19-1.43s.75-.34,1.2-.34c.63,0,1.24.18,1.83.54l-.86,2.48c-.47-.31-.9-.47-1.31-.47s-.72.11-.99.33c-.27.22-.48.62-.64,1.19-.16.57-.23,1.78-.23,3.61v3.32Z"/>
    <path class="cls-2" d="M134.03,76.06v-1.61c-.38.57-.89,1.03-1.51,1.36-.62.33-1.28.5-1.98.5s-1.34-.16-1.9-.48-.97-.76-1.22-1.34-.38-1.37-.38-2.38v-6.81h2.78v4.94c0,1.51.05,2.44.15,2.78.1.34.29.61.56.81.27.2.61.3,1.03.3.48,0,.9-.13,1.28-.4.38-.27.63-.6.77-.99.14-.4.21-1.36.21-2.9v-4.54h2.78v10.76h-2.58Z"/>
    <path class="cls-2" d="M139.29,65.3h2.56v1.47c.92-1.14,2.01-1.71,3.28-1.71.67,0,1.26.14,1.75.43s.9.71,1.22,1.29c.46-.57.96-1,1.5-1.29s1.11-.43,1.71-.43c.77,0,1.43.16,1.96.48s.93.79,1.2,1.41c.19.46.29,1.2.29,2.23v6.88h-2.78v-6.15c0-1.07-.1-1.76-.29-2.07-.26-.41-.65-.61-1.19-.61-.39,0-.76.12-1.1.36s-.59.6-.74,1.07c-.15.47-.23,1.21-.23,2.22v5.17h-2.78v-5.9c0-1.05-.05-1.72-.15-2.03-.1-.3-.25-.53-.46-.68-.21-.15-.49-.22-.85-.22-.43,0-.82.12-1.16.35s-.59.58-.74,1.02-.22,1.19-.22,2.22v5.23h-2.78v-10.76Z"/>
    <path class="cls-2" d="M13.06,87.92v-1.08h3.82s0,3.42,0,3.42c-.59.48-1.19.84-1.82,1.08-.62.24-1.26.36-1.92.36-.89,0-1.69-.19-2.42-.58-.72-.39-1.27-.95-1.64-1.69-.37-.73-.55-1.56-.55-2.46s.18-1.74.55-2.52c.37-.78.9-1.36,1.59-1.74s1.48-.57,2.38-.57c.65,0,1.24.11,1.77.32.53.22.94.52,1.24.9.3.39.53.89.68,1.51l-1.08.3c-.14-.47-.3-.84-.5-1.11-.2-.27-.49-.48-.86-.65s-.79-.24-1.24-.24c-.55,0-1.02.08-1.42.25-.4.17-.72.39-.96.67-.24.28-.43.58-.57.91-.23.57-.34,1.19-.34,1.86,0,.82.14,1.51.42,2.07.28.55.68.97,1.21,1.23.53.27,1.09.4,1.69.4.52,0,1.02-.1,1.51-.31.49-.2.87-.42,1.12-.65v-1.72h-2.65Z"/>
    <path class="cls-2" d="M18.84,91.54v-9.23h1.19v9.23h-1.19Z"/>
    <path class="cls-2" d="M22.17,91.54v-9.23h6.53v1.09h-5.33v2.83h4.99v1.08h-4.99v3.14h5.54v1.09h-6.73Z"/>
    <path class="cls-2" d="M30.15,88.57l1.13-.1c.05.46.18.84.37,1.14.19.3.5.54.91.72.41.18.87.27,1.39.27.46,0,.86-.07,1.21-.21.35-.14.61-.33.78-.57.17-.24.26-.5.26-.79s-.08-.54-.25-.76c-.16-.22-.43-.4-.81-.54-.24-.1-.78-.25-1.61-.45s-1.41-.4-1.74-.58c-.43-.23-.75-.52-.96-.86s-.32-.73-.32-1.15c0-.47.13-.9.39-1.31.26-.41.64-.71,1.13-.92s1.05-.31,1.66-.31c.67,0,1.26.11,1.77.33.51.22.9.54,1.18.97.27.43.42.91.44,1.46l-1.15.09c-.06-.58-.27-1.02-.62-1.32s-.88-.45-1.57-.45-1.25.14-1.58.41c-.33.27-.5.6-.5.98,0,.33.12.6.35.82.23.21.83.43,1.8.66.97.22,1.64.42,2,.59.52.25.91.56,1.16.94s.38.82.38,1.31-.14.95-.41,1.39c-.28.43-.67.77-1.19,1.01-.52.24-1.09.36-1.74.36-.82,0-1.5-.12-2.05-.37-.55-.24-.98-.61-1.3-1.1s-.48-1.04-.5-1.66Z"/>
    <path class="cls-2" d="M38.56,88.57l1.13-.1c.05.46.18.84.37,1.14.19.3.5.54.91.72.41.18.87.27,1.39.27.46,0,.86-.07,1.21-.21.35-.14.61-.33.78-.57.17-.24.26-.5.26-.79s-.08-.54-.25-.76c-.16-.22-.43-.4-.81-.54-.24-.1-.78-.25-1.61-.45s-1.41-.4-1.74-.58c-.43-.23-.75-.52-.96-.86s-.32-.73-.32-1.15c0-.47.13-.9.39-1.31.26-.41.64-.71,1.13-.92s1.05-.31,1.66-.31c.67,0,1.26.11,1.77.33.51.22.9.54,1.18.97.27.43.42.91.44,1.46l-1.15.09c-.06-.58-.27-1.02-.62-1.32s-.88-.45-1.57-.45-1.25.14-1.58.41c-.33.27-.5.6-.5.98,0,.33.12.6.35.82.23.21.83.43,1.8.66.97.22,1.64.42,2,.59.52.25.91.56,1.16.94s.38.82.38,1.31-.14.95-.41,1.39c-.28.43-.67.77-1.19,1.01-.52.24-1.09.36-1.74.36-.82,0-1.5-.12-2.05-.37-.55-.24-.98-.61-1.3-1.1s-.48-1.04-.5-1.66Z"/>
    <path class="cls-2" d="M47.39,91.54v-9.23h6.53v1.09h-5.33v2.83h4.99v1.08h-4.99v3.14h5.54v1.09h-6.73Z"/>
    <path class="cls-2" d="M55.77,91.54v-9.23h1.22l4.74,7.25v-7.25h1.15v9.23h-1.23l-4.74-7.26v7.26h-1.15Z"/>
    <path class="cls-2" d="M64.31,88.77v-1.14h3.4v1.14h-3.4Z"/>
    <path class="cls-2" d="M71.66,91.54l-3.5-9.23h1.29l2.35,6.71c.19.54.35,1.04.47,1.51.14-.5.3-1.01.49-1.51l2.44-6.71h1.22l-3.53,9.23h-1.23Z"/>
    <path class="cls-2" d="M77.13,87.04c0-1.53.4-2.73,1.21-3.6s1.84-1.3,3.11-1.3c.83,0,1.58.2,2.25.61.67.41,1.18.98,1.53,1.7.35.73.53,1.55.53,2.48s-.18,1.77-.55,2.51c-.37.74-.89,1.3-1.57,1.68s-1.41.57-2.19.57c-.85,0-1.61-.21-2.28-.63-.67-.42-1.18-.99-1.52-1.72s-.52-1.5-.52-2.31ZM78.36,87.06c0,1.11.29,1.99.88,2.63.58.64,1.32.96,2.2.96s1.64-.32,2.22-.97c.58-.65.87-1.56.87-2.75,0-.75-.12-1.41-.37-1.97-.25-.56-.61-1-1.09-1.3-.48-.31-1.02-.46-1.61-.46-.85,0-1.57.3-2.18.89s-.91,1.59-.91,2.98Z"/>
    <path class="cls-2" d="M91.52,87.92v-1.08h3.82s0,3.42,0,3.42c-.59.48-1.19.84-1.82,1.08-.62.24-1.26.36-1.92.36-.89,0-1.69-.19-2.42-.58-.72-.39-1.27-.95-1.64-1.69-.37-.73-.55-1.56-.55-2.46s.18-1.74.55-2.52c.37-.78.9-1.36,1.59-1.74s1.48-.57,2.38-.57c.65,0,1.24.11,1.77.32.53.22.94.52,1.24.9.3.39.53.89.68,1.51l-1.08.3c-.14-.47-.3-.84-.5-1.11-.2-.27-.49-.48-.86-.65s-.79-.24-1.24-.24c-.55,0-1.02.08-1.42.25-.4.17-.72.39-.96.67-.24.28-.43.58-.57.91-.23.57-.34,1.19-.34,1.86,0,.82.14,1.51.42,2.07.28.55.68.97,1.21,1.23.53.27,1.09.4,1.69.4.52,0,1.02-.1,1.51-.31.49-.2.87-.42,1.12-.65v-1.72h-2.65Z"/>
    <path class="cls-2" d="M97.13,91.54v-9.23h6.53v1.09h-5.33v2.83h4.99v1.08h-4.99v3.14h5.54v1.09h-6.73Z"/>
    <path class="cls-2" d="M105.46,91.54v-9.23h1.19v8.14h4.44v1.09h-5.64Z"/>
    <path class="cls-2" d="M112.12,88.57l1.13-.1c.05.46.18.84.37,1.14.19.3.5.54.91.72.41.18.87.27,1.39.27.46,0,.86-.07,1.21-.21.35-.14.61-.33.78-.57.17-.24.26-.5.26-.79s-.08-.54-.25-.76c-.16-.22-.43-.4-.81-.54-.24-.1-.78-.25-1.61-.45s-1.41-.4-1.74-.58c-.43-.23-.75-.52-.96-.86s-.32-.73-.32-1.15c0-.47.13-.9.39-1.31.26-.41.64-.71,1.13-.92s1.05-.31,1.66-.31c.67,0,1.26.11,1.77.33.51.22.9.54,1.18.97.27.43.42.91.44,1.46l-1.15.09c-.06-.58-.27-1.02-.62-1.32s-.88-.45-1.57-.45-1.25.14-1.58.41c-.33.27-.5.6-.5.98,0,.33.12.6.35.82.23.21.83.43,1.8.66.97.22,1.64.42,2,.59.52.25.91.56,1.16.94s.38.82.38,1.31-.14.95-.41,1.39c-.28.43-.67.77-1.19,1.01-.52.24-1.09.36-1.74.36-.82,0-1.5-.12-2.05-.37-.55-.24-.98-.61-1.3-1.1s-.48-1.04-.5-1.66Z"/>
    <path class="cls-2" d="M120.88,91.54v-9.23h3.39c.69,0,1.24.09,1.66.28.42.19.74.47.98.86.24.39.35.79.35,1.22,0,.4-.1.77-.31,1.11-.21.35-.53.63-.95.84.55.16.97.44,1.26.84.29.39.44.86.44,1.4,0,.43-.09.83-.27,1.21-.18.37-.4.66-.66.86s-.59.35-.99.46-.88.15-1.46.15h-3.44ZM122.08,86.19h1.95c.53,0,.91-.04,1.14-.11.3-.09.53-.25.69-.46s.23-.48.23-.81c0-.31-.07-.58-.22-.81-.14-.23-.35-.39-.62-.48s-.72-.13-1.37-.13h-1.8v2.79ZM122.08,90.45h2.25c.39,0,.66-.01.81-.04.27-.05.5-.13.69-.25.18-.12.34-.29.46-.51.12-.22.18-.48.18-.78,0-.34-.09-.64-.26-.9-.17-.25-.41-.43-.72-.54s-.75-.15-1.32-.15h-2.09v3.17Z"/>
    <path class="cls-2" d="M129.36,91.54v-9.23h6.53v1.09h-5.33v2.83h4.99v1.08h-4.99v3.14h5.54v1.09h-6.73Z"/>
    <path class="cls-2" d="M137.77,91.54v-9.23h4c.8,0,1.42.08,1.83.25.42.17.75.46,1,.88s.38.88.38,1.39c0,.65-.21,1.21-.62,1.66-.41.45-1.05.73-1.92.86.32.16.56.31.72.46.35.33.68.74.99,1.23l1.57,2.51h-1.5l-1.19-1.92c-.35-.55-.64-.98-.86-1.27s-.43-.5-.61-.62c-.18-.12-.36-.2-.54-.25-.14-.03-.36-.04-.67-.04h-1.39v4.1h-1.19ZM138.96,86.38h2.57c.55,0,.97-.06,1.28-.17.31-.12.54-.3.7-.55s.24-.53.24-.83c0-.44-.16-.8-.46-1.08-.31-.28-.8-.42-1.47-.42h-2.86v3.06Z"/>
    <path class="cls-2" d="M151.08,87.92v-1.08h3.82s0,3.42,0,3.42c-.59.48-1.19.84-1.82,1.08-.62.24-1.26.36-1.92.36-.89,0-1.69-.19-2.42-.58-.72-.39-1.27-.95-1.64-1.69-.37-.73-.55-1.56-.55-2.46s.18-1.74.55-2.52c.37-.78.9-1.36,1.59-1.74s1.48-.57,2.38-.57c.65,0,1.24.11,1.77.32.53.22.94.52,1.24.9.3.39.53.89.68,1.51l-1.08.3c-.14-.47-.3-.84-.5-1.11-.2-.27-.49-.48-.86-.65s-.79-.24-1.24-.24c-.55,0-1.02.08-1.42.25-.4.17-.72.39-.96.67-.24.28-.43.58-.57.91-.23.57-.34,1.19-.34,1.86,0,.82.14,1.51.42,2.07.28.55.68.97,1.21,1.23.53.27,1.09.4,1.69.4.52,0,1.02-.1,1.51-.31.49-.2.87-.42,1.12-.65v-1.72h-2.65Z"/>
  </g>
</svg>